# xmcd CD database file
#
# Track frame offsets:
#	150
#	41180
#	67391
#	93974
#	108104
#	127224
#	150057
#	168750
#	189508
#	209473
#	245009
#	279816
#	302316
#	320653
#
# Disc length: 4566 seconds
#
# Revision: 0
# Processed by: cddbd v1.5.1PL2 Copyright (c) Steve Scherf et al.
# Submitted via: CDex 1.51
#
DISCID=bc11d40e
DTITLE=Various Artist - WaMu 3
DYEAR=2005
DGENRE=Jazz
TTITLE0=Grover Washington Jr. - Mr. Magic
TTITLE1=Bob James - Angela (Theme From Taxi)
TTITLE2=Ramsey Lewis - The 'in' crowd
TTITLE3=Jr. Walker and The All Stars - Hot Cha
TTITLE4=US3 - Cantaloop (instrumental)
TTITLE5=Swingout Sister - Everyday Crime (Instrumental)
TTITLE6=Swing Out Sister - I Can Hear You But I Can't See You (Instrumental)
TTITLE7=Rick Braun - Groovis
TTITLE8=Rick Braun - Cadillac Slim
TTITLE9=Stanley Clarke - School Days
TTITLE10=Tower of Power - Squib Cakes
TTITLE11=Santana - Santana - Smooth
TTITLE12=Strunz and Farah - La Tinaja
TTITLE13=Strunz and Farah - Pura Vida
EXTD=YEAR: 2005
EXTT0=
EXTT1=
EXTT2=
EXTT3=
EXTT4=
EXTT5=
EXTT6=
EXTT7=
EXTT8=
EXTT9=
EXTT10=
EXTT11=
EXTT12=
EXTT13=
PLAYORDER=
